<?xml version="1.0" encoding="utf-8"?>
<!-- Generator: Adobe Illustrator 19.0.0, SVG Export Plug-In . SVG Version: 6.00 Build 0)  -->
<svg version="1.1" id="Layer_2" xmlns="http://www.w3.org/2000/svg" xmlns:xlink="http://www.w3.org/1999/xlink" x="0px" y="0px"
	 viewBox="0 0 174 44.6" style="enable-background:new 0 0 174 44.6;" xml:space="preserve">
<style type="text/css">
	.st0{fill:#27AAE1;}
	.st1{fill:#585EAA;}
	.st2{fill:#F06649;}
	.st3{fill:#647183;}
	.st4{fill:#FFFFFF;}
</style>
<g id="XMLID_2_">
	<g id="XMLID_316_">
		<polygon id="XMLID_320_" class="st0" points="29,8.5 34.8,11.9 19.3,20.8 19.2,20.8 3.8,11.9 9.6,8.5 7.3,7 0,11.2 0,19.3 
			2.5,20.8 2.5,13.8 18,22.9 18,40.8 12.2,37.4 12.2,40.4 19.4,44.6 26.4,40.4 26.4,37.4 20.7,40.8 20.7,22.9 20.8,22.9 36.1,13.8 
			36.1,20.8 38.6,19.3 38.6,11.2 31.3,7 		"/>
		<polygon id="XMLID_319_" class="st0" points="9,29.7 7.7,27.4 2.5,30.4 2.5,23.7 0.1,25.1 0.1,33.4 7.1,37.6 9.7,36 3.7,32.6 		
			"/>
		<polygon id="XMLID_318_" class="st0" points="36.2,30.4 31,27.4 29.7,29.7 34.9,32.6 29,36 31.6,37.6 38.6,33.4 38.6,25.1 
			36.2,23.7 		"/>
		<polygon id="XMLID_317_" class="st0" points="18.1,9.6 20.6,9.6 20.6,3.5 26.4,7 26.4,4.1 19.4,0 12.3,4.1 12.3,6.9 18.1,3.5 		
			"/>
	</g>
	<g id="XMLID_60_">
		<rect id="XMLID_124_" x="46.1" class="st1" width="32" height="32"/>
		<rect id="XMLID_123_" x="78.1" class="st0" width="32" height="32"/>
		<rect id="XMLID_122_" x="110.1" class="st2" width="32" height="32"/>
		<rect id="XMLID_121_" x="142" class="st3" width="32" height="32"/>
		<g id="XMLID_334_">
			<path id="XMLID_335_" class="st4" d="M58.4,27.5V10.5h-6.6V4.5h20.6v6.1h-6.6v16.9H58.4z"/>
		</g>
		<g id="XMLID_330_">
			<path id="XMLID_331_" class="st4" d="M82.7,16c0-3.6,1-6.4,3-8.4c2-2.1,4.8-3.1,8.3-3.1c3.5,0,6.3,1,8.3,3.1c2,2.1,3,4.9,3,8.4
				c0,3.5-1,6.4-3,8.4c-2,2.1-4.8,3.1-8.3,3.1c-3.5,0-6.3-1-8.3-3.1C83.7,22.3,82.7,19.5,82.7,16z M89.8,16c0,2.1,0.3,3.6,1,4.6
				c0.7,1,1.8,1.5,3.2,1.5c1.5,0,2.5-0.5,3.2-1.4c0.7-1,1-2.5,1-4.6c0-2.1-0.3-3.6-1-4.6c-0.7-1-1.8-1.4-3.2-1.4
				c-1.5,0-2.6,0.5-3.2,1.5C90.2,12.4,89.8,13.9,89.8,16z"/>
		</g>
		<g id="XMLID_325_">
			<g id="XMLID_326_">
				<path id="XMLID_327_" class="st4" d="M115.7,27.5v-23h9.5c2.1,0,3.8,0.1,5,0.4c1.2,0.2,2.2,0.6,3.1,1.2c1.1,0.7,1.9,1.6,2.4,2.7
					c0.5,1.1,0.8,2.3,0.8,3.8c0,2.6-0.8,4.5-2.3,5.9c-1.5,1.4-3.7,2.1-6.6,2.1h-4.4v7H115.7z M123.1,14.8h2.4c1.5,0,2.6-0.2,3.1-0.5
					c0.5-0.3,0.8-1,0.8-1.8c0-0.9-0.3-1.5-0.8-1.8c-0.5-0.3-1.5-0.5-3.1-0.5h-2.4V14.8z"/>
			</g>
		</g>
		<g id="XMLID_321_">
			<g id="XMLID_322_">
				<path id="XMLID_323_" class="st4" d="M148.3,20.1h6.8c0.2,0.8,0.5,1.4,1,1.7c0.5,0.3,1.2,0.5,2.2,0.5c0.8,0,1.5-0.1,1.9-0.4
					c0.5-0.3,0.7-0.7,0.7-1.2c0-0.8-1-1.4-3-1.9c-0.4-0.1-0.7-0.2-0.9-0.2c-1.6-0.4-2.9-0.8-3.8-1.1c-1-0.3-1.6-0.7-2.1-1
					c-0.8-0.6-1.5-1.3-1.9-2.2c-0.4-0.8-0.6-1.8-0.6-2.9c0-2.2,0.8-3.9,2.4-5.1c1.6-1.2,3.9-1.9,6.7-1.9c2.8,0,5,0.6,6.6,1.8
					c1.6,1.2,2.5,2.9,2.7,5.1h-6.7c-0.1-0.6-0.4-1.1-0.9-1.4c-0.5-0.3-1.1-0.5-2-0.5c-0.8,0-1.3,0.1-1.7,0.4
					c-0.4,0.2-0.5,0.6-0.5,1.1c0,0.7,1,1.3,2.9,1.8c0.2,0,0.3,0.1,0.4,0.1c0.3,0.1,0.7,0.2,1.3,0.3c2.5,0.6,4.2,1.2,5,1.7
					c1,0.6,1.7,1.4,2.1,2.2c0.4,0.8,0.7,1.8,0.7,2.9c0,2.4-0.8,4.3-2.5,5.6c-1.7,1.3-4.1,1.9-7.2,1.9c-2.9,0-5.2-0.6-6.9-1.9
					C149.4,24.3,148.5,22.4,148.3,20.1z"/>
			</g>
		</g>
	</g>
	<g id="XMLID_16_">
		<path id="XMLID_17_" d="M47.9,44.5h-1.8v-7.6h1.8V44.5z"/>
		<path id="XMLID_19_" d="M56,36.9v7.6H55c-0.1,0-0.2,0-0.3-0.1c-0.1,0-0.2-0.1-0.3-0.2l-3.6-4.5c0,0.1,0,0.3,0,0.4
			c0,0.1,0,0.2,0,0.4v4.1h-1.5v-7.6h0.9c0.1,0,0.1,0,0.2,0c0.1,0,0.1,0,0.1,0c0,0,0.1,0,0.1,0.1c0,0,0.1,0.1,0.1,0.1l3.6,4.5
			c0-0.1,0-0.3,0-0.4c0-0.1,0-0.3,0-0.4v-4H56z"/>
		<path id="XMLID_21_" d="M59.2,38.3v1.9h2.6v1.4h-2.6v2.9h-1.8v-7.6h4.9v1.4H59.2z"/>
		<path id="XMLID_23_" d="M70.7,40.7c0,0.5-0.1,1.1-0.3,1.5c-0.2,0.5-0.5,0.9-0.8,1.2c-0.3,0.3-0.8,0.6-1.2,0.8
			c-0.5,0.2-1,0.3-1.6,0.3c-0.6,0-1.1-0.1-1.6-0.3c-0.5-0.2-0.9-0.5-1.2-0.8c-0.3-0.3-0.6-0.8-0.8-1.2s-0.3-1-0.3-1.5
			c0-0.5,0.1-1.1,0.3-1.5s0.5-0.9,0.8-1.2c0.3-0.3,0.8-0.6,1.2-0.8c0.5-0.2,1-0.3,1.6-0.3c0.6,0,1.1,0.1,1.6,0.3
			c0.5,0.2,0.9,0.5,1.2,0.8c0.3,0.3,0.6,0.8,0.8,1.2C70.6,39.6,70.7,40.2,70.7,40.7z M68.9,40.7c0-0.4,0-0.7-0.1-1
			c-0.1-0.3-0.2-0.6-0.4-0.8c-0.2-0.2-0.4-0.4-0.7-0.5c-0.3-0.1-0.6-0.2-0.9-0.2c-0.3,0-0.6,0.1-0.9,0.2c-0.3,0.1-0.5,0.3-0.7,0.5
			c-0.2,0.2-0.3,0.5-0.4,0.8c-0.1,0.3-0.1,0.6-0.1,1c0,0.4,0,0.7,0.1,1c0.1,0.3,0.2,0.6,0.4,0.8c0.2,0.2,0.4,0.4,0.7,0.5
			c0.3,0.1,0.6,0.2,0.9,0.2c0.3,0,0.6-0.1,0.9-0.2c0.3-0.1,0.5-0.3,0.7-0.5c0.2-0.2,0.3-0.5,0.4-0.8C68.8,41.4,68.9,41.1,68.9,40.7z
			"/>
		<path id="XMLID_26_" d="M75.9,38.5c-0.1,0.1-0.1,0.1-0.2,0.2c-0.1,0-0.1,0.1-0.2,0.1c-0.1,0-0.2,0-0.3-0.1
			c-0.1-0.1-0.2-0.1-0.3-0.2c-0.1-0.1-0.2-0.1-0.4-0.2c-0.1-0.1-0.3-0.1-0.5-0.1c-0.3,0-0.6,0.1-0.7,0.2C73.1,38.6,73,38.8,73,39
			c0,0.2,0,0.3,0.1,0.4c0.1,0.1,0.2,0.2,0.4,0.3c0.2,0.1,0.3,0.1,0.5,0.2c0.2,0.1,0.4,0.1,0.6,0.2c0.2,0.1,0.4,0.2,0.6,0.3
			c0.2,0.1,0.4,0.2,0.5,0.4c0.2,0.2,0.3,0.3,0.4,0.6c0.1,0.2,0.1,0.5,0.1,0.8c0,0.3-0.1,0.7-0.2,1c-0.1,0.3-0.3,0.6-0.5,0.8
			c-0.2,0.2-0.5,0.4-0.9,0.5c-0.3,0.1-0.7,0.2-1.1,0.2c-0.2,0-0.5,0-0.7-0.1c-0.2,0-0.5-0.1-0.7-0.2c-0.2-0.1-0.4-0.2-0.6-0.3
			c-0.2-0.1-0.4-0.3-0.5-0.4l0.5-0.8c0-0.1,0.1-0.1,0.2-0.1c0.1,0,0.1-0.1,0.2-0.1c0.1,0,0.2,0,0.3,0.1c0.1,0.1,0.2,0.1,0.4,0.2
			c0.1,0.1,0.3,0.2,0.5,0.2c0.2,0.1,0.4,0.1,0.6,0.1c0.3,0,0.6-0.1,0.7-0.2c0.2-0.1,0.3-0.4,0.3-0.7c0-0.2,0-0.3-0.1-0.4
			c-0.1-0.1-0.2-0.2-0.4-0.3c-0.2-0.1-0.3-0.1-0.5-0.2c-0.2-0.1-0.4-0.1-0.6-0.2c-0.2-0.1-0.4-0.2-0.6-0.2c-0.2-0.1-0.4-0.2-0.5-0.4
			s-0.3-0.4-0.4-0.6c-0.1-0.2-0.1-0.5-0.1-0.9c0-0.3,0.1-0.6,0.2-0.8c0.1-0.3,0.3-0.5,0.5-0.7s0.5-0.4,0.8-0.5
			c0.3-0.1,0.7-0.2,1.1-0.2c0.2,0,0.5,0,0.7,0.1c0.2,0,0.4,0.1,0.6,0.2c0.2,0.1,0.4,0.2,0.6,0.3c0.2,0.1,0.3,0.2,0.5,0.3L75.9,38.5z
			"/>
		<path id="XMLID_28_" d="M84.9,40.7c0,0.5-0.1,1.1-0.3,1.5s-0.5,0.9-0.8,1.2c-0.3,0.3-0.8,0.6-1.2,0.8c-0.5,0.2-1,0.3-1.6,0.3
			c-0.6,0-1.1-0.1-1.6-0.3c-0.5-0.2-0.9-0.5-1.2-0.8c-0.3-0.3-0.6-0.8-0.8-1.2s-0.3-1-0.3-1.5c0-0.5,0.1-1.1,0.3-1.5
			s0.5-0.9,0.8-1.2c0.3-0.3,0.8-0.6,1.2-0.8c0.5-0.2,1-0.3,1.6-0.3c0.6,0,1.1,0.1,1.6,0.3c0.5,0.2,0.9,0.5,1.2,0.8
			c0.3,0.3,0.6,0.8,0.8,1.2S84.9,40.2,84.9,40.7z M83.1,40.7c0-0.4,0-0.7-0.1-1c-0.1-0.3-0.2-0.6-0.4-0.8c-0.2-0.2-0.4-0.4-0.7-0.5
			c-0.3-0.1-0.6-0.2-0.9-0.2c-0.3,0-0.6,0.1-0.9,0.2c-0.3,0.1-0.5,0.3-0.7,0.5c-0.2,0.2-0.3,0.5-0.4,0.8c-0.1,0.3-0.1,0.6-0.1,1
			c0,0.4,0,0.7,0.1,1c0.1,0.3,0.2,0.6,0.4,0.8c0.2,0.2,0.4,0.4,0.7,0.5c0.3,0.1,0.6,0.2,0.9,0.2c0.3,0,0.6-0.1,0.9-0.2
			c0.3-0.1,0.5-0.3,0.7-0.5c0.2-0.2,0.3-0.5,0.4-0.8C83,41.4,83.1,41.1,83.1,40.7z"/>
		<path id="XMLID_31_" d="M90.5,43.1v1.4h-4.6v-7.6h1.8v6.2H90.5z"/>
		<path id="XMLID_33_" d="M94.4,43.1c0.2,0,0.4,0,0.6-0.1c0.2-0.1,0.3-0.2,0.5-0.3c0.1-0.1,0.2-0.3,0.3-0.5c0.1-0.2,0.1-0.4,0.1-0.7
			v-4.5h1.8v4.5c0,0.5-0.1,0.9-0.2,1.3c-0.2,0.4-0.4,0.7-0.6,1c-0.3,0.3-0.6,0.5-1,0.7c-0.4,0.2-0.9,0.2-1.4,0.2
			c-0.5,0-1-0.1-1.4-0.2c-0.4-0.2-0.7-0.4-1-0.7c-0.3-0.3-0.5-0.6-0.6-1c-0.1-0.4-0.2-0.8-0.2-1.3v-4.5h1.8v4.5c0,0.3,0,0.5,0.1,0.7
			c0.1,0.2,0.2,0.4,0.3,0.5c0.1,0.1,0.3,0.3,0.5,0.3C93.9,43.1,94.1,43.1,94.4,43.1z"/>
		<path id="XMLID_35_" d="M104.4,38.3h-2.1v6.2h-1.8v-6.2h-2.1v-1.4h6V38.3z"/>
		<path id="XMLID_37_" d="M107.1,44.5h-1.8v-7.6h1.8V44.5z"/>
		<path id="XMLID_39_" d="M116,40.7c0,0.5-0.1,1.1-0.3,1.5c-0.2,0.5-0.5,0.9-0.8,1.2c-0.3,0.3-0.8,0.6-1.2,0.8
			c-0.5,0.2-1,0.3-1.6,0.3c-0.6,0-1.1-0.1-1.6-0.3c-0.5-0.2-0.9-0.5-1.2-0.8c-0.3-0.3-0.6-0.8-0.8-1.2c-0.2-0.5-0.3-1-0.3-1.5
			c0-0.5,0.1-1.1,0.3-1.5c0.2-0.5,0.5-0.9,0.8-1.2c0.3-0.3,0.8-0.6,1.2-0.8c0.5-0.2,1-0.3,1.6-0.3c0.6,0,1.1,0.1,1.6,0.3
			c0.5,0.2,0.9,0.5,1.2,0.8c0.3,0.3,0.6,0.8,0.8,1.2C115.9,39.6,116,40.2,116,40.7z M114.2,40.7c0-0.4,0-0.7-0.1-1
			c-0.1-0.3-0.2-0.6-0.4-0.8c-0.2-0.2-0.4-0.4-0.7-0.5c-0.3-0.1-0.6-0.2-0.9-0.2c-0.3,0-0.6,0.1-0.9,0.2c-0.3,0.1-0.5,0.3-0.7,0.5
			c-0.2,0.2-0.3,0.5-0.4,0.8c-0.1,0.3-0.1,0.6-0.1,1c0,0.4,0,0.7,0.1,1c0.1,0.3,0.2,0.6,0.4,0.8c0.2,0.2,0.4,0.4,0.7,0.5
			c0.3,0.1,0.6,0.2,0.9,0.2c0.3,0,0.6-0.1,0.9-0.2c0.3-0.1,0.5-0.3,0.7-0.5c0.2-0.2,0.3-0.5,0.4-0.8
			C114.1,41.4,114.2,41.1,114.2,40.7z"/>
		<path id="XMLID_42_" d="M123.6,36.9v7.6h-0.9c-0.1,0-0.2,0-0.3-0.1c-0.1,0-0.2-0.1-0.3-0.2l-3.6-4.5c0,0.1,0,0.3,0,0.4
			c0,0.1,0,0.2,0,0.4v4.1H117v-7.6h0.9c0.1,0,0.1,0,0.2,0c0.1,0,0.1,0,0.1,0c0,0,0.1,0,0.1,0.1c0,0,0.1,0.1,0.1,0.1l3.6,4.5
			c0-0.1,0-0.3,0-0.4c0-0.1,0-0.3,0-0.4v-4H123.6z"/>
		<path id="XMLID_44_" d="M129.3,38.5c-0.1,0.1-0.1,0.1-0.2,0.2c-0.1,0-0.1,0.1-0.2,0.1c-0.1,0-0.2,0-0.3-0.1
			c-0.1-0.1-0.2-0.1-0.3-0.2c-0.1-0.1-0.2-0.1-0.4-0.2c-0.1-0.1-0.3-0.1-0.5-0.1c-0.3,0-0.6,0.1-0.7,0.2c-0.2,0.1-0.2,0.3-0.2,0.6
			c0,0.2,0,0.3,0.1,0.4c0.1,0.1,0.2,0.2,0.4,0.3c0.2,0.1,0.3,0.1,0.5,0.2c0.2,0.1,0.4,0.1,0.6,0.2c0.2,0.1,0.4,0.2,0.6,0.3
			c0.2,0.1,0.4,0.2,0.5,0.4s0.3,0.3,0.4,0.6c0.1,0.2,0.1,0.5,0.1,0.8c0,0.3-0.1,0.7-0.2,1c-0.1,0.3-0.3,0.6-0.5,0.8
			c-0.2,0.2-0.5,0.4-0.9,0.5c-0.3,0.1-0.7,0.2-1.1,0.2c-0.2,0-0.5,0-0.7-0.1c-0.2,0-0.5-0.1-0.7-0.2c-0.2-0.1-0.4-0.2-0.6-0.3
			c-0.2-0.1-0.4-0.3-0.5-0.4l0.5-0.8c0-0.1,0.1-0.1,0.2-0.1c0.1,0,0.1-0.1,0.2-0.1c0.1,0,0.2,0,0.3,0.1c0.1,0.1,0.2,0.1,0.4,0.2
			c0.1,0.1,0.3,0.2,0.5,0.2c0.2,0.1,0.4,0.1,0.6,0.1c0.3,0,0.6-0.1,0.7-0.2c0.2-0.1,0.3-0.4,0.3-0.7c0-0.2,0-0.3-0.1-0.4
			c-0.1-0.1-0.2-0.2-0.4-0.3c-0.2-0.1-0.3-0.1-0.5-0.2c-0.2-0.1-0.4-0.1-0.6-0.2c-0.2-0.1-0.4-0.2-0.6-0.2c-0.2-0.1-0.4-0.2-0.5-0.4
			s-0.3-0.4-0.4-0.6c-0.1-0.2-0.1-0.5-0.1-0.9c0-0.3,0.1-0.6,0.2-0.8c0.1-0.3,0.3-0.5,0.5-0.7s0.5-0.4,0.8-0.5
			c0.3-0.1,0.7-0.2,1.1-0.2c0.2,0,0.5,0,0.7,0.1c0.2,0,0.4,0.1,0.6,0.2c0.2,0.1,0.4,0.2,0.6,0.3c0.2,0.1,0.3,0.2,0.5,0.3L129.3,38.5
			z"/>
		<path id="XMLID_46_" d="M135.9,36.9c0.5,0,1,0.1,1.4,0.2c0.4,0.1,0.7,0.3,0.9,0.5c0.2,0.2,0.4,0.5,0.5,0.8c0.1,0.3,0.2,0.6,0.2,1
			c0,0.4-0.1,0.7-0.2,1c-0.1,0.3-0.3,0.6-0.6,0.8c-0.2,0.2-0.6,0.4-0.9,0.5c-0.4,0.1-0.8,0.2-1.4,0.2H135v2.5h-1.8v-7.6H135.9z
			 M135.9,40.6c0.5,0,0.8-0.1,1-0.3c0.2-0.2,0.3-0.5,0.3-0.9c0-0.2,0-0.3-0.1-0.5c-0.1-0.1-0.1-0.3-0.2-0.4
			c-0.1-0.1-0.2-0.2-0.4-0.2c-0.2-0.1-0.4-0.1-0.6-0.1H135v2.4H135.9z"/>
		<path id="XMLID_49_" d="M146.5,36.9l-3,7.6h-1.6l-3-7.6h1.4c0.2,0,0.3,0,0.4,0.1c0.1,0.1,0.2,0.2,0.2,0.3l1.5,4.1
			c0.1,0.2,0.1,0.4,0.2,0.6c0.1,0.2,0.1,0.4,0.2,0.7c0-0.2,0.1-0.4,0.2-0.7c0.1-0.2,0.1-0.4,0.2-0.6l1.5-4.1c0-0.1,0.1-0.2,0.2-0.3
			c0.1-0.1,0.2-0.1,0.4-0.1H146.5z"/>
		<path id="XMLID_51_" d="M153,38.3h-2.1v6.2h-1.8v-6.2H147v-1.4h6V38.3z"/>
		<path id="XMLID_53_" d="M160.8,43.1v1.4h-4.6v-7.6h1.8v6.2H160.8z"/>
		<path id="XMLID_55_" d="M166.2,38.3h-2.1v6.2h-1.8v-6.2h-2.1v-1.4h6V38.3z"/>
		<path id="XMLID_57_" d="M174,40.7c0,0.5-0.1,1.1-0.3,1.5c-0.2,0.5-0.5,0.9-0.8,1.2c-0.3,0.3-0.8,0.6-1.2,0.8s-1,0.3-1.6,0.3h-2.9
			v-7.6h2.9c0.6,0,1.1,0.1,1.6,0.3s0.9,0.5,1.2,0.8c0.3,0.3,0.6,0.7,0.8,1.2C173.9,39.7,174,40.2,174,40.7z M172.2,40.7
			c0-0.4,0-0.7-0.1-1c-0.1-0.3-0.2-0.6-0.4-0.8c-0.2-0.2-0.4-0.4-0.7-0.5c-0.3-0.1-0.6-0.2-0.9-0.2h-1.2v4.9h1.2
			c0.3,0,0.6-0.1,0.9-0.2c0.3-0.1,0.5-0.3,0.7-0.5c0.2-0.2,0.3-0.5,0.4-0.8C172.2,41.4,172.2,41.1,172.2,40.7z"/>
	</g>
</g>
</svg>
