<svg id="Layer_1" data-name="Layer 1" xmlns="http://www.w3.org/2000/svg" viewBox="0 0 40 40"><defs><style>.cls-1{fill:#383838;}</style></defs><title>01_dashboard</title><path class="cls-1" d="M39.65,22.75A20.21,20.21,0,0,0,14.86,7.22,19.05,19.05,0,0,0,.12,27.83c.42,3.67,2.1,5.36,5.81,5.45,4.72.11,9.44,0,14.17,0v.07H33c.55,0,1.1,0,1.65-.08,3-.21,4.56-1.46,5-4.12A16.41,16.41,0,0,0,39.65,22.75Zm-16-2.51c-.91,1.63-1.71,3.32-2.56,5A2.16,2.16,0,0,0,21,26.91a2.61,2.61,0,0,1-2.43,3.36,3,3,0,0,1-2.85-2.49,2.73,2.73,0,0,1,2.07-2.84,1.48,1.48,0,0,0,1.16-1c.81-1.68,1.66-3.34,2.5-5,.44-.87,1-1.46,2-.81S24.14,19.43,23.69,20.24Zm12.52,5.59c-1,.22-2.15.23-2.66-1a7.19,7.19,0,0,1-.24-.93C31.56,17,26.66,13.29,19.59,13.44c-6.89.14-11.62,4.13-13.07,11a2,2,0,0,1-2.94,1.59,1.59,1.59,0,0,1-.84-1.85A16.28,16.28,0,0,1,17,9.88c1-.11,1.91-.2,2.87-.3,8.8,0,15.58,5.72,17,14.35C37,24.7,37.3,25.6,36.21,25.83Z"/></svg>