<svg id="Layer_1" data-name="Layer 1" xmlns="http://www.w3.org/2000/svg" viewBox="0 0 40 40"><defs><style>.cls-1{fill:#383838;}</style></defs><title>02_user</title><path class="cls-1" d="M36.84,34a15.05,15.05,0,0,0-4.51-7.79,7.75,7.75,0,0,0-8.69-1.57,7.33,7.33,0,0,1-7.31,0A5.88,5.88,0,0,0,12,24c-4.53,1.06-6.85,4.37-8.39,8.35S3.13,38,7.28,38.92A51.75,51.75,0,0,0,20,40c1.79,0,3.6.11,5.38,0a34.53,34.53,0,0,0,9.12-1.54C36.77,37.57,37.37,36.38,36.84,34Z"/><path class="cls-1" d="M24.69,19a12.5,12.5,0,0,0,4.15-9c.1-3.95-1.3-7.26-5-9.08-6.14-3-12.66,1.57-12.65,9.37a12.66,12.66,0,0,0,4.19,8.82C18.38,21.88,21.7,21.84,24.69,19Z"/></svg>