<svg id="Layer_1" data-name="Layer 1" xmlns="http://www.w3.org/2000/svg" viewBox="0 0 40 40"><defs><style>.cls-1{fill:#383838;}</style></defs><title>03_lead_mgt</title><path class="cls-1" d="M33.23,0H6.77A4.58,4.58,0,0,0,2.2,4.57V35.43A4.58,4.58,0,0,0,6.77,40H33.23a4.58,4.58,0,0,0,4.57-4.57V4.57A4.58,4.58,0,0,0,33.23,0ZM13.47,7.34h2.6a1.35,1.35,0,0,1,1.35,1.35v1.42a2.66,2.66,0,0,0,2.86,2.61,2.66,2.66,0,0,0,2.86-2.61V8.69A1.35,1.35,0,0,1,24.5,7.34h2.6a1.35,1.35,0,0,1,0,2.71H25.85v.07a5.36,5.36,0,0,1-5.57,5.32,5.36,5.36,0,0,1-5.57-5.32V10H13.47a1.35,1.35,0,1,1,0-2.71Zm0,25.27H10.37a1.35,1.35,0,1,1,0-2.71H13.5a1.35,1.35,0,1,1,0,2.71Zm4.67-.36-.1.09-.11.08-.11.07-.12.06-.12,0-.13,0-.13,0h-.27l-.13,0-.13,0-.12,0-.12-.06-.11-.07-.11-.08-.1-.09-.09-.1L16.1,32,16,31.93,16,31.81l0-.12a1.4,1.4,0,0,1-.05-.26s0-.09,0-.13a1.32,1.32,0,0,1,0-.13,1.29,1.29,0,0,1,0-.13,1.22,1.22,0,0,1,0-.13l0-.13.06-.12.07-.11.08-.11.09-.1.1-.09.11-.08.11-.07.12-.06.12,0L17,30l.13,0h.27l.13,0,.13,0,.12,0,.12.06.11.07.11.08.1.09.09.1.08.11.07.11.06.12,0,.13,0,.13a1.28,1.28,0,0,1,0,.13,1.32,1.32,0,0,1,0,.13A1.36,1.36,0,0,1,18.18,32.25Zm1-6.86H10.37a1.35,1.35,0,1,1,0-2.71h8.82a1.35,1.35,0,0,1,0,2.71Zm11.7,6.92a1.35,1.35,0,0,1-1.91,0l-1.53-1.53a4.11,4.11,0,0,1-2.55,0l-1.51,1.51a1.35,1.35,0,1,1-1.91-1.91l1.24-1.24a4.12,4.12,0,1,1,6.89,0l1.29,1.29A1.35,1.35,0,0,1,30.88,32.31Zm-.66-11.6H10.35a1.35,1.35,0,1,1,0-2.71H30.21a1.35,1.35,0,0,1,0,2.71Z"/></svg>