<svg id="Layer_1" data-name="Layer 1" xmlns="http://www.w3.org/2000/svg" viewBox="0 0 40 40"><defs><style>.cls-1{fill:#383838;}</style></defs><title>06_view</title><path class="cls-1" d="M20,15.48A4.51,4.51,0,1,0,24.5,20,4.51,4.51,0,0,0,20,15.48Zm0,7.39A2.88,2.88,0,1,1,22.88,20,2.88,2.88,0,0,1,20,22.87Z"/><path class="cls-1" d="M33.33,0H6.67A6.67,6.67,0,0,0,0,6.67V33.33A6.67,6.67,0,0,0,6.67,40H33.33A6.67,6.67,0,0,0,40,33.33V6.67A6.67,6.67,0,0,0,33.33,0ZM30,20.17a11,11,0,0,1-19.91,0,.43.43,0,0,1,0-.36,11,11,0,0,1,19.91,0A.43.43,0,0,1,30,20.17Z"/></svg>