<svg id="Layer_1" data-name="Layer 1" xmlns="http://www.w3.org/2000/svg" xmlns:xlink="http://www.w3.org/1999/xlink" viewBox="0 0 40 40"><defs><style>.cls-1,.cls-2,.cls-3{fill:#383838;}.cls-1{clip-rule:evenodd;}.cls-3{fill-rule:evenodd;}.cls-4{clip-path:url(#clip-path);}</style><clipPath id="clip-path"><path class="cls-1" d="M85.21,14.69a.94.94,0,1,0-.94-.94A.94.94,0,0,0,85.21,14.69ZM57.71,6.88h3.13a.63.63,0,0,1,.63.63V8.75H57.08V7.5A.63.63,0,0,1,57.71,6.88Zm15.63,25A9.38,9.38,0,1,0,64,22.5,9.37,9.37,0,0,0,73.33,31.88Zm0-1.87a7.5,7.5,0,1,1,7.5-7.5A7.5,7.5,0,0,1,73.33,30ZM57.08,10h5.21a1.88,1.88,0,0,0,1.59-.88l1.47-2.36A3.75,3.75,0,0,1,68.54,5h9.59a3.75,3.75,0,0,1,3.18,1.76l1.47,2.36a1.88,1.88,0,0,0,1.59.88h5.21a3.75,3.75,0,0,1,3.75,3.75v17.5A3.75,3.75,0,0,1,89.58,35H57.08a3.75,3.75,0,0,1-3.75-3.75V13.75A3.75,3.75,0,0,1,57.08,10Z"/></clipPath></defs><title>07_details</title><path class="cls-2" d="M30.73,17.49,14.28,1a3.54,3.54,0,0,0-5,5L23.1,19.88a.17.17,0,0,1,0,.24L9.27,33.95a3.54,3.54,0,0,0,0,5h0a3.54,3.54,0,0,0,5,0L30.73,22.51A3.54,3.54,0,0,0,30.73,17.49Z"/><path class="cls-3" d="M85.21,14.69a.94.94,0,1,0-.94-.94A.94.94,0,0,0,85.21,14.69ZM57.71,6.88h3.13a.63.63,0,0,1,.63.63V8.75H57.08V7.5A.63.63,0,0,1,57.71,6.88Zm15.63,25A9.38,9.38,0,1,0,64,22.5,9.37,9.37,0,0,0,73.33,31.88Zm0-1.87a7.5,7.5,0,1,1,7.5-7.5A7.5,7.5,0,0,1,73.33,30ZM57.08,10h5.21a1.88,1.88,0,0,0,1.59-.88l1.47-2.36A3.75,3.75,0,0,1,68.54,5h9.59a3.75,3.75,0,0,1,3.18,1.76l1.47,2.36a1.88,1.88,0,0,0,1.59.88h5.21a3.75,3.75,0,0,1,3.75,3.75v17.5A3.75,3.75,0,0,1,89.58,35H57.08a3.75,3.75,0,0,1-3.75-3.75V13.75A3.75,3.75,0,0,1,57.08,10Z"/><g class="cls-4"><rect class="cls-2" x="28.33" y="-25" width="90" height="90"/></g></svg>