<svg id="Layer_1" data-name="Layer 1" xmlns="http://www.w3.org/2000/svg" xmlns:xlink="http://www.w3.org/1999/xlink" viewBox="0 0 40 40"><defs><style>.cls-1,.cls-2,.cls-3{fill:#383838;}.cls-1{clip-rule:evenodd;}.cls-3{fill-rule:evenodd;}.cls-4{clip-path:url(#clip-path);}.cls-5{clip-path:url(#clip-path-2);}</style><clipPath id="clip-path"><path class="cls-1" d="M31.88,14.69a.94.94,0,1,0-.94-.94A.94.94,0,0,0,31.88,14.69ZM4.38,6.88H7.5a.63.63,0,0,1,.63.63V8.75H3.75V7.5A.63.63,0,0,1,4.38,6.88ZM20,31.88a9.38,9.38,0,1,0-9.37-9.37A9.37,9.37,0,0,0,20,31.88ZM20,30a7.5,7.5,0,1,1,7.5-7.5A7.5,7.5,0,0,1,20,30ZM3.75,10H9a1.88,1.88,0,0,0,1.59-.88L12,6.76A3.75,3.75,0,0,1,15.2,5H24.8A3.75,3.75,0,0,1,28,6.76l1.47,2.36A1.88,1.88,0,0,0,31,10h5.21A3.75,3.75,0,0,1,40,13.75v17.5A3.75,3.75,0,0,1,36.25,35H3.75A3.75,3.75,0,0,1,0,31.25V13.75A3.75,3.75,0,0,1,3.75,10Z"/></clipPath><clipPath id="clip-path-2"><rect class="cls-2" x="-25" y="-25" width="90" height="90"/></clipPath></defs><title>08_camera</title><path class="cls-3" d="M31.88,14.69a.94.94,0,1,0-.94-.94A.94.94,0,0,0,31.88,14.69ZM4.38,6.88H7.5a.63.63,0,0,1,.63.63V8.75H3.75V7.5A.63.63,0,0,1,4.38,6.88ZM20,31.88a9.38,9.38,0,1,0-9.37-9.37A9.37,9.37,0,0,0,20,31.88ZM20,30a7.5,7.5,0,1,1,7.5-7.5A7.5,7.5,0,0,1,20,30ZM3.75,10H9a1.88,1.88,0,0,0,1.59-.88L12,6.76A3.75,3.75,0,0,1,15.2,5H24.8A3.75,3.75,0,0,1,28,6.76l1.47,2.36A1.88,1.88,0,0,0,31,10h5.21A3.75,3.75,0,0,1,40,13.75v17.5A3.75,3.75,0,0,1,36.25,35H3.75A3.75,3.75,0,0,1,0,31.25V13.75A3.75,3.75,0,0,1,3.75,10Z"/><g class="cls-4"><rect class="cls-2" x="-25" y="-25" width="90" height="90"/><g class="cls-5"><rect class="cls-2" x="-6.25" y="-1.25" width="52.5" height="42.5"/></g></g></svg>