<svg id="Layer_1" data-name="Layer 1" xmlns="http://www.w3.org/2000/svg" xmlns:xlink="http://www.w3.org/1999/xlink" viewBox="0 0 40 40"><defs><style>.cls-1,.cls-2,.cls-4{fill:#383838;}.cls-1{clip-rule:evenodd;}.cls-2{fill-rule:evenodd;}.cls-3{clip-path:url(#clip-path);}</style><clipPath id="clip-path"><path class="cls-1" d="M-28.5,14.69a.94.94,0,0,0,.94-.94.94.94,0,0,0-.94-.94.94.94,0,0,0-.94.94A.94.94,0,0,0-28.5,14.69ZM-56,6.88h3.13a.63.63,0,0,1,.63.63V8.75h-4.37V7.5A.63.63,0,0,1-56,6.88Zm15.63,25A9.37,9.37,0,0,0-31,22.5a9.37,9.37,0,0,0-9.37-9.37,9.37,9.37,0,0,0-9.37,9.38A9.37,9.37,0,0,0-40.37,31.88Zm0-1.87a7.5,7.5,0,0,1-7.5-7.5,7.5,7.5,0,0,1,7.5-7.5,7.5,7.5,0,0,1,7.5,7.5A7.5,7.5,0,0,1-40.37,30ZM-56.62,10h5.21a1.88,1.88,0,0,0,1.59-.88l1.47-2.36A3.75,3.75,0,0,1-45.17,5h9.59A3.75,3.75,0,0,1-32.4,6.76l1.47,2.36a1.88,1.88,0,0,0,1.59.88h5.21a3.75,3.75,0,0,1,3.75,3.75v17.5A3.75,3.75,0,0,1-24.12,35h-32.5a3.75,3.75,0,0,1-3.75-3.75V13.75A3.75,3.75,0,0,1-56.62,10Z"/></clipPath></defs><title>09_calendar</title><path class="cls-2" d="M-28.5,14.69a.94.94,0,0,0,.94-.94.94.94,0,0,0-.94-.94.94.94,0,0,0-.94.94A.94.94,0,0,0-28.5,14.69ZM-56,6.88h3.13a.63.63,0,0,1,.63.63V8.75h-4.37V7.5A.63.63,0,0,1-56,6.88Zm15.63,25A9.37,9.37,0,0,0-31,22.5a9.37,9.37,0,0,0-9.37-9.37,9.37,9.37,0,0,0-9.37,9.38A9.37,9.37,0,0,0-40.37,31.88Zm0-1.87a7.5,7.5,0,0,1-7.5-7.5,7.5,7.5,0,0,1,7.5-7.5,7.5,7.5,0,0,1,7.5,7.5A7.5,7.5,0,0,1-40.37,30ZM-56.62,10h5.21a1.88,1.88,0,0,0,1.59-.88l1.47-2.36A3.75,3.75,0,0,1-45.17,5h9.59A3.75,3.75,0,0,1-32.4,6.76l1.47,2.36a1.88,1.88,0,0,0,1.59.88h5.21a3.75,3.75,0,0,1,3.75,3.75v17.5A3.75,3.75,0,0,1-24.12,35h-32.5a3.75,3.75,0,0,1-3.75-3.75V13.75A3.75,3.75,0,0,1-56.62,10Z"/><g class="cls-3"><rect class="cls-4" x="-85.38" y="-25" width="90" height="90"/></g><path class="cls-4" d="M33.57,3.7H28.9v-1a1.5,1.5,0,1,0-3,0v1H14.1v-1a1.43,1.43,0,0,0-1.5-1.5,1.43,1.43,0,0,0-1.5,1.5v1H6.43A6.37,6.37,0,0,0,0,10.13v22.2a6.37,6.37,0,0,0,6.43,6.43H33.57A6.37,6.37,0,0,0,40,32.33V10.13A6.37,6.37,0,0,0,33.57,3.7ZM3,10.13A3.52,3.52,0,0,1,6.43,6.7H11.1v1a1.44,1.44,0,0,0,1.5,1.5,1.44,1.44,0,0,0,1.5-1.5v-1H25.9v1a1.5,1.5,0,1,0,3,0v-1h4.67A3.52,3.52,0,0,1,37,10.13v3.43H3Zm34,6.43V32.33a3.52,3.52,0,0,1-3.43,3.43H6.43A3.52,3.52,0,0,1,3,32.33V16.57Z"/><path class="cls-4" d="M8.9,32.6a2.51,2.51,0,0,0,1.91-.82,2.65,2.65,0,0,0,0-3.83A2.65,2.65,0,0,0,7,28a2.51,2.51,0,0,0-.82,1.92A2.94,2.94,0,0,0,7,31.78,2.51,2.51,0,0,0,8.9,32.6Z"/><path class="cls-4" d="M8.9,25.2a2.51,2.51,0,0,0,1.91-.82,3,3,0,0,0,.82-1.92,2.94,2.94,0,0,0-.82-1.91,2.65,2.65,0,0,0-3.83,0,2.65,2.65,0,0,0,0,3.83A2.51,2.51,0,0,0,8.9,25.2Z"/><path class="cls-4" d="M16.3,32.6a2.51,2.51,0,0,0,1.91-.82,2.65,2.65,0,0,0,0-3.83,2.65,2.65,0,0,0-3.83,0,2.65,2.65,0,0,0,0,3.83A2.51,2.51,0,0,0,16.3,32.6Z"/><path class="cls-4" d="M16.3,25.2a2.51,2.51,0,0,0,1.91-.82A3,3,0,0,0,19,22.47a2.94,2.94,0,0,0-.82-1.91,2.65,2.65,0,0,0-3.83,0,2.94,2.94,0,0,0-.82,1.91,3,3,0,0,0,.82,1.92A2.51,2.51,0,0,0,16.3,25.2Z"/><path class="cls-4" d="M23.7,32.6A2.71,2.71,0,0,0,25.61,28a2.65,2.65,0,0,0-3.83,0,2.65,2.65,0,0,0,0,3.83A2.51,2.51,0,0,0,23.7,32.6Z"/><path class="cls-4" d="M23.7,25.2a2.8,2.8,0,0,0,2.73-2.73,2.94,2.94,0,0,0-.82-1.91,2.65,2.65,0,0,0-3.83,0A2.94,2.94,0,0,0,21,22.47a3,3,0,0,0,.82,1.92A2.51,2.51,0,0,0,23.7,25.2Z"/><path class="cls-4" d="M31.1,32.6A2.51,2.51,0,0,0,33,31.78,2.65,2.65,0,0,0,33,28a2.65,2.65,0,0,0-3.83,0,2.51,2.51,0,0,0-.82,1.92,2.94,2.94,0,0,0,.82,1.91A2.51,2.51,0,0,0,31.1,32.6Z"/><path class="cls-4" d="M31.1,25.2a2.79,2.79,0,0,0,2.73-2.73A3,3,0,0,0,33,20.55a2.65,2.65,0,0,0-3.83,0,2.94,2.94,0,0,0-.82,1.91,3,3,0,0,0,.82,1.92A2.51,2.51,0,0,0,31.1,25.2Z"/></svg>