<svg id="Isolation_Mode" data-name="Isolation Mode" xmlns="http://www.w3.org/2000/svg" viewBox="0 0 26.9 18"><title>dasboard</title><path d="M173.4,189.2a13.7,13.7,0,0,0-16.7-10.5,12.8,12.8,0,0,0-9.9,13.9c.2,2.5,1.4,3.6,3.9,3.7H170c2-.2,3.1-1,3.4-2.8A10.4,10.4,0,0,0,173.4,189.2Zm-10.8-1.7-1.7,3.3a1.6,1.6,0,0,0-.1,1.2,1.7,1.7,0,0,1-1.6,2.2,2,2,0,0,1-2-1.6,1.8,1.8,0,0,1,1.4-1.9c.5-.1.6-.3.8-.7l1.7-3.4c.3-.5.7-.9,1.4-.5S162.9,186.9,162.6,187.5Zm8.4,3.8c-.7.1-1.4.1-1.8-.8s-.1-.4-.1-.6c-1.2-4.6-4.5-7.1-9.2-7a8.6,8.6,0,0,0-8.8,7.4,1.4,1.4,0,0,1-2,1.1c-.5-.2-.6-.7-.6-1.2a11,11,0,0,1,9.6-9.7l2-.2a11.3,11.3,0,0,1,11.4,9.7C171.6,190.5,171.8,191.1,171,191.3Z" transform="translate(-146.7 -178.3)" style="fill:#fff"/></svg>